<svg width="63" height="41" viewBox="0 0 63 41" fill="none" xmlns="http://www.w3.org/2000/svg">
<path fill-rule="evenodd" clip-rule="evenodd" d="M16.961 35.7592C11.5626 35.524 6.07302 34.8857 0.792804 36.4022C0.478153 36.4914 0.151214 36.308 0.0613516 35.9892C-0.026147 35.6706 0.155461 35.3391 0.470275 35.2475C5.87393 33.6961 11.4904 34.3189 17.0141 34.5603C17.3408 34.5729 17.5946 34.8547 17.5792 35.1856C17.5661 35.5166 17.2877 35.7718 16.961 35.7592Z" fill="#C2C7D0"/>
<path fill-rule="evenodd" clip-rule="evenodd" d="M17.9849 27.864C16.4117 26.1835 14.6581 24.8854 12.4814 24.1531C12.1704 24.0487 12.0037 23.709 12.1058 23.3947C12.2103 23.0805 12.547 22.9103 12.8556 23.0145C15.2226 23.8106 17.133 25.211 18.8435 27.0372C19.0693 27.2772 19.0601 27.6573 18.8214 27.8854C18.5851 28.1134 18.2084 28.1039 17.9849 27.864Z" fill="#C2C7D0"/>
<path fill-rule="evenodd" clip-rule="evenodd" d="M23.8222 11.0837C23.2341 8.35597 21.8597 6.1599 19.6376 4.49031C19.3757 4.2933 19.3206 3.91725 19.5167 3.65137C19.7105 3.38533 20.0822 3.32934 20.3442 3.52635C22.8033 5.3749 24.3279 7.80535 24.9792 10.8255C25.0497 11.1487 24.8451 11.4691 24.527 11.5403C24.2064 11.6115 23.8904 11.4067 23.8222 11.0837Z" fill="#C2C7D0"/>
<path fill-rule="evenodd" clip-rule="evenodd" d="M50.6147 9.26003C51.0359 9.83778 51.4069 10.4547 51.7139 11.1055C51.8509 11.3952 52.0846 12.0071 52.0925 12.5187C52.1028 13.0639 51.8898 13.5088 51.4056 13.7178C50.7624 13.9949 50.2685 13.9278 49.8989 13.7086C49.5429 13.4979 49.2795 13.1137 49.1309 12.6125C48.8472 11.6545 48.9964 10.23 49.2338 9.42746C48.7795 8.88282 48.2747 8.38258 47.7286 7.93125C43.6611 4.56985 37.311 5.27493 32.1714 9.53702C30.3727 11.0293 29.3301 14.3495 28.6592 17.9627C27.614 23.5884 27.5585 29.9475 27.4842 31.8066C27.4648 32.2656 27.4038 32.5347 27.3765 32.5874C27.2472 32.847 27.0464 32.9031 26.9076 32.9201C26.7067 32.9425 26.551 32.8934 26.4279 32.8177C26.2617 32.714 26.131 32.5425 26.0818 32.2884C26.0557 32.148 26.0594 31.9554 26.078 31.751C26.0924 31.6094 26.1313 31.4562 26.1099 31.3525C25.97 30.6883 25.7912 30.0369 25.6175 29.3812C25.0388 27.1775 24.2382 25.0948 23.3335 23.0075C20.4595 16.3749 17.7189 9.387 12.624 4.13599C12.3956 3.90037 12.3977 3.52004 12.6319 3.28778C12.8637 3.05535 13.2386 3.05826 13.4694 3.29427C18.6663 8.64916 21.4865 15.7596 24.418 22.5235C25.1872 24.2991 25.8831 26.0722 26.4365 27.9148C26.5844 24.7319 26.9098 20.3343 27.749 16.4808C28.495 13.0536 29.6743 10.0602 31.4228 8.6094C37.0529 3.94034 44.024 3.31891 48.4779 7.00124C48.9543 7.39539 49.4046 7.82385 49.8196 8.28357C52.5749 3.96764 57.9425 2.52802 62.4322 4.98764C62.7205 5.14508 62.8263 5.50919 62.6712 5.80047C62.5137 6.09159 62.155 6.20041 61.8666 6.04297C57.8208 3.82666 52.9662 5.22831 50.6147 9.26003ZM50.17 10.7375C50.3427 11.0244 50.5006 11.3204 50.646 11.6251C50.7227 11.7886 50.8533 12.1018 50.8969 12.4025C50.9064 12.4729 50.9013 12.5817 50.8979 12.632C50.7294 12.7023 50.5991 12.7329 50.4988 12.6729C50.3732 12.5989 50.3175 12.4412 50.2653 12.2657C50.1339 11.8253 50.1207 11.2524 50.17 10.7375Z" fill="#C2C7D0"/>
</svg>
