<svg width="307" height="153" viewBox="0 0 307 153" fill="none" xmlns="http://www.w3.org/2000/svg">
<path d="M263 140.063C271.827 141.409 278.754 136.193 285.804 132.161C288.47 130.635 292.936 126.887 295.603 125.86C296.329 125.581 296.409 133.134 296.5 134.583C296.53 135.059 296.99 128.769 297.567 127.08C300.709 117.882 286.45 127.382 283.495 123.606" stroke="#6C6F7C" stroke-width="2" stroke-linecap="round"/>
<path d="M125.945 98.4635C174.873 98.2338 239.695 99.3629 282.348 70.4033C294.125 62.4076 312.302 49.6663 302.277 33.1127C287.217 8.24442 243.665 4.58855 219.271 2.37575C175.729 -1.57404 131.033 3.08432 88.8462 15.0213C62.5479 22.4625 19.9795 35.717 4.8617 62.096C-34.646 131.033 241.552 139.459 261.186 140.5" stroke="#6C6F7C" stroke-width="2" stroke-linecap="round"/>
</svg>
