<svg width="116" height="24" viewBox="0 0 116 24" fill="none" xmlns="http://www.w3.org/2000/svg">
<path d="M2.38225 10.3421V2.4814H4.2984C6.30087 2.4814 7.95808 3.74813 7.95808 6.42041C7.95808 9.09269 6.2836 10.3421 4.28114 10.3421H2.38225ZM4.36745 12.5632C7.8545 12.5632 10.4266 10.3074 10.4266 6.42041C10.4266 2.53346 7.87177 0.260287 4.38471 0.260287H0V12.5632H4.36745Z" fill="white"/>
<path d="M20.1564 12.5632V10.3074H14.8741V7.46156H19.6558V5.3272H14.8741V2.51611H20.1564V0.260287H12.4918V12.5632H20.1564Z" fill="white"/>
<path d="M30.7735 3.19285C30.4973 1.80466 29.358 0 26.3888 0C24.0756 0 22.1249 1.66584 22.1249 3.85224C22.1249 5.70896 23.3851 6.97569 25.3358 7.37479L27.0448 7.72184C27.9942 7.91272 28.5294 8.468 28.5294 9.17945C28.5294 10.0471 27.8216 10.6891 26.5442 10.6891C24.8179 10.6891 23.972 9.59591 23.8684 8.38124L21.6588 8.97122C21.8487 10.7238 23.2815 12.8235 26.5269 12.8235C29.3752 12.8235 30.9461 10.9147 30.9461 9.02328C30.9461 7.28803 29.755 5.83042 27.5281 5.39661L25.8191 5.06692C24.9215 4.89339 24.4899 4.35547 24.4899 3.67872C24.4899 2.86315 25.2495 2.117 26.406 2.117C27.9597 2.117 28.5121 3.1755 28.6329 3.85224L30.7735 3.19285Z" fill="white"/>
<path d="M35.3743 12.5632V0.260287H32.9575V12.5632H35.3743Z" fill="white"/>
<path d="M49.2492 12.5632V6.16012H43.1383V8.24242H47.0051C46.867 9.11004 45.9866 10.6371 43.7252 10.6371C41.6709 10.6371 39.8584 9.1968 39.8584 6.42041C39.8584 3.5052 41.8608 2.23847 43.7079 2.23847C45.6931 2.23847 46.7116 3.5052 47.0224 4.5984L49.301 3.78283C48.6968 1.89142 46.9188 0 43.7079 0C40.3935 0 37.4416 2.4467 37.4416 6.42041C37.4416 10.3941 40.2554 12.8235 43.5526 12.8235C45.3997 12.8235 46.6081 11.9905 47.1605 11.1576L47.3158 12.5632H49.2492Z" fill="white"/>
<path d="M62.097 12.5632V0.260287H59.7147V8.39859L54.6223 0.260287H51.6531V12.5632H54.0353V3.83489L59.5939 12.5632H62.097Z" fill="white"/>
<path d="M78.1628 2.53346V0.260287H68.0297V2.53346H71.8965V12.5632H74.296V2.53346H78.1628Z" fill="white"/>
<path d="M87.5044 12.5632V10.3074H82.222V7.46156H87.0037V5.3272H82.222V2.51611H87.5044V0.260287H79.8397V12.5632H87.5044Z" fill="white"/>
<path d="M98.1905 12.5632H100.78L96.119 0.260287H93.3569L88.6615 12.5632H91.1818L92.2003 9.75208H97.172L98.1905 12.5632ZM94.6862 2.91521L96.3779 7.56567H92.9944L94.6862 2.91521Z" fill="white"/>
<path d="M116 12.5632V0.260287H112.755L109.164 9.14474L105.487 0.260287H102.345V12.5632H104.624V4.00842L108.145 12.5632H110.131L113.652 3.93901V12.5632H116Z" fill="white"/>
<path fill-rule="evenodd" clip-rule="evenodd" d="M48.4339 18.6487C48.4334 18.6482 48.433 18.6477 49.4889 17.7766C50.5449 16.9055 50.5444 16.9051 50.5441 16.9046L50.5434 16.9039L50.5422 16.9026L50.5412 16.9014C50.541 16.9013 50.5413 16.9015 50.5419 16.9023C50.5424 16.9027 50.5429 16.9033 50.5436 16.9041C50.5473 16.9081 50.555 16.9165 50.5668 16.9291C50.5904 16.9542 50.6302 16.9957 50.6861 17.0513C50.7979 17.1626 50.9739 17.3299 51.2133 17.5348C51.6926 17.9451 52.4227 18.5031 53.3984 19.0642C55.3453 20.1838 58.2697 21.3164 62.1565 21.3164C65.724 21.3164 68.3221 20.2116 70.0229 19.1252C70.877 18.5796 71.5067 18.0371 71.9166 17.6389C72.1213 17.4401 72.2701 17.2782 72.3637 17.1713C72.4105 17.1179 72.4434 17.0784 72.4624 17.055C72.472 17.0433 72.478 17.0357 72.4806 17.0324L72.4795 17.0339L72.4788 17.0348C72.4784 17.0353 72.478 17.0358 73.5962 17.8311C74.7143 18.6263 74.7139 18.6269 74.7135 18.6274L74.7104 18.6315L74.7051 18.6384C74.701 18.6436 74.6961 18.65 74.6902 18.6574C74.6784 18.6724 74.6629 18.6919 74.6436 18.7156C74.605 18.7629 74.5514 18.8271 74.4825 18.9057C74.3448 19.0628 74.146 19.278 73.8848 19.5317C73.3631 20.0386 72.5888 20.7029 71.5536 21.3642C69.476 22.6913 66.3542 24.0001 62.1565 24.0001C57.6857 24.0001 54.2764 22.6919 51.9788 21.3706C50.8323 20.7113 49.9626 20.049 49.3726 19.544C49.0774 19.2912 48.8513 19.0772 48.6948 18.9215C48.6165 18.8436 48.5555 18.7802 48.5119 18.7338C48.4901 18.7106 48.4726 18.6916 48.4594 18.6772C48.4529 18.6699 48.4474 18.6638 48.443 18.6589L48.4371 18.6524L48.4349 18.6498L48.4339 18.6487ZM72.4819 17.0308C72.4823 17.0302 72.4819 17.0308 72.4806 17.0324L72.4819 17.0308Z" fill="white"/>
</svg>
