<svg width="232" height="57" viewBox="0 0 232 57" fill="none" xmlns="http://www.w3.org/2000/svg">
<path fill-rule="evenodd" clip-rule="evenodd" d="M87.6448 43.3752C87.6439 43.3742 87.6429 43.3732 89.8625 41.636C92.082 39.8987 92.0803 39.8969 92.0803 39.8969L92.0788 39.8953L92.0765 39.8928L92.0743 39.8905C92.0743 39.8905 92.0745 39.8907 92.0759 39.8922C92.0767 39.893 92.0779 39.8943 92.0794 39.8958C92.0871 39.9038 92.1033 39.9207 92.1281 39.9457C92.1777 39.9957 92.2613 40.0785 92.3788 40.1894C92.6139 40.4113 92.9837 40.745 93.487 41.1537C94.4945 41.972 96.0291 43.0849 98.08 44.2039C102.172 46.4368 108.319 48.6956 116.489 48.6956C123.988 48.6956 129.449 46.4922 133.024 44.3254C134.819 43.2374 136.142 42.1555 137.004 41.3613C137.434 40.9647 137.747 40.6419 137.944 40.4288C138.042 40.3223 138.111 40.2435 138.151 40.1968C138.171 40.1735 138.184 40.1583 138.19 40.1517L138.187 40.1547L138.186 40.1565C138.185 40.1575 138.184 40.1586 140.534 41.7446C142.885 43.3306 142.884 43.3317 142.883 43.3328L142.876 43.3409L142.865 43.3547C142.857 43.365 142.846 43.3777 142.834 43.3926C142.809 43.4225 142.776 43.4613 142.736 43.5085C142.655 43.6029 142.542 43.7309 142.397 43.8877C142.108 44.2011 141.69 44.6303 141.141 45.1363C140.044 46.1472 138.417 47.4721 136.241 48.7908C131.874 51.4376 125.312 54.0479 116.489 54.0479C107.092 54.0479 99.9254 51.4388 95.0961 48.8037C92.6862 47.4888 90.8581 46.1678 89.618 45.1607C88.9974 44.6567 88.5223 44.2297 88.1933 43.9192C88.0287 43.7639 87.9006 43.6375 87.8089 43.5449C87.763 43.4986 87.7262 43.4608 87.6986 43.432C87.6848 43.4176 87.6732 43.4054 87.6639 43.3956L87.6517 43.3826L87.6469 43.3775L87.6448 43.3752ZM138.192 40.1484C138.193 40.1473 138.192 40.1484 138.19 40.1517L138.192 40.1484Z" fill="url(#paint0_linear_1544_195)"/>
<path d="M4.76449 26.9044V10.854H8.5968C12.6017 10.854 15.9162 13.4405 15.9162 18.8969C15.9162 24.3534 12.5672 26.9044 8.56227 26.9044H4.76449ZM8.7349 31.4396C15.709 31.4396 20.8533 26.8335 20.8533 18.8969C20.8533 10.9603 15.7435 6.31882 8.76942 6.31882H0V31.4396H8.7349Z" fill="#323541"/>
<path d="M40.3129 31.4396V26.8335H29.7481V21.0228H39.3116V16.6648H29.7481V10.9249H40.3129V6.31882H24.9836V31.4396H40.3129Z" fill="#323541"/>
<path d="M61.547 12.3067C60.9946 9.47221 58.7159 5.78735 52.7776 5.78735C48.1512 5.78735 44.2498 9.18876 44.2498 13.6531C44.2498 17.4443 46.7702 20.0307 50.6715 20.8457L54.0895 21.5543C55.9884 21.944 57.0587 23.0778 57.0587 24.5305C57.0587 26.3021 55.6432 27.613 53.0883 27.613C49.6358 27.613 47.944 25.3809 47.7369 22.9007L43.3176 24.1053C43.6974 27.6839 46.563 31.9711 53.0538 31.9711C58.7504 31.9711 61.8923 28.0736 61.8923 24.2116C61.8923 20.6685 59.51 17.6923 55.0562 16.8065L51.6382 16.1333C49.8429 15.779 48.9798 14.6806 48.9798 13.2988C48.9798 11.6335 50.4989 10.11 52.8121 10.11C55.9194 10.11 57.0242 12.2713 57.2659 13.6531L61.547 12.3067Z" fill="#323541"/>
<path d="M70.7485 31.4396V6.31882H65.915V31.4396H70.7485Z" fill="#323541"/>
<path d="M98.4985 31.4396V18.3655H86.2765V22.6172H94.0102C93.734 24.3888 91.9732 27.5067 87.4504 27.5067C83.3419 27.5067 79.7167 24.5659 79.7167 18.8969C79.7167 12.9445 83.7217 10.358 87.4159 10.358C91.3863 10.358 93.4233 12.9445 94.0447 15.1766L98.6021 13.5114C97.3937 9.64937 93.8376 5.78735 87.4159 5.78735C80.787 5.78735 74.8832 10.7832 74.8832 18.8969C74.8832 27.0107 80.5108 31.9711 87.1052 31.9711C90.7994 31.9711 93.2161 30.2704 94.3209 28.5697L94.6317 31.4396H98.4985Z" fill="#323541"/>
<path d="M124.194 31.4396V6.31882H119.429V22.9361L109.245 6.31882H103.306V31.4396H108.071V13.6177L119.188 31.4396H124.194Z" fill="#323541"/>
<path d="M156.326 10.9603V6.31882H136.059V10.9603H143.793V31.4396H148.592V10.9603H156.326Z" fill="#323541"/>
<path d="M175.009 31.4396V26.8335H164.444V21.0228H174.007V16.6648H164.444V10.9249H175.009V6.31882H159.679V31.4396H175.009Z" fill="#323541"/>
<path d="M196.381 31.4396H201.56L192.238 6.31882H186.714L177.323 31.4396H182.364L184.401 25.6997H194.344L196.381 31.4396ZM189.372 11.7398L192.756 21.2354H185.989L189.372 11.7398Z" fill="#323541"/>
<path d="M232 31.4396V6.31882H225.509L218.328 24.4596L210.974 6.31882H204.69V31.4396H209.248V13.972L216.291 31.4396H220.261L227.305 13.8303V31.4396H232Z" fill="#323541"/>
<defs>
<linearGradient id="paint0_linear_1544_195" x1="136.439" y1="49.9722" x2="87.4464" y2="42.7016" gradientUnits="userSpaceOnUse">
<stop stop-color="#7126AB"/>
<stop offset="0.516511" stop-color="#5132A9"/>
<stop offset="1" stop-color="#003AAD"/>
</linearGradient>
</defs>
</svg>
