<svg width="247" height="100" viewBox="0 0 247 100" fill="none" xmlns="http://www.w3.org/2000/svg">
<path d="M33.7377 55.944V43.8255H36.744C39.8858 43.8255 42.486 45.7784 42.486 49.8981C42.486 54.0179 39.8588 55.944 36.717 55.944H33.7377ZM36.8524 59.3682C42.3234 59.3682 46.359 55.8905 46.359 49.8981C46.359 43.9057 42.3505 40.4013 36.8795 40.4013H30V59.3682H36.8524Z" fill="#323541"/>
<path d="M61.6247 59.3682V55.8905H53.3369V51.5032H60.8393V48.2128H53.3369V43.879H61.6247V40.4013H49.5992V59.3682H61.6247Z" fill="#323541"/>
<path d="M78.2826 44.9223C77.8492 42.7822 76.0616 40 71.4031 40C67.7738 40 64.7132 42.5682 64.7132 45.9389C64.7132 48.8013 66.6904 50.7542 69.7509 51.3695L72.4323 51.9045C73.922 52.1988 74.7616 53.0548 74.7616 54.1516C74.7616 55.4892 73.6511 56.479 71.6469 56.479C68.9384 56.479 67.6113 54.7937 67.4488 52.9211L63.9819 53.8306C64.2799 56.5326 66.5279 59.7695 71.6198 59.7695C76.0887 59.7695 78.5534 56.8268 78.5534 53.9109C78.5534 51.2357 76.6846 48.9886 73.1907 48.3198L70.5093 47.8115C69.1009 47.544 68.4238 46.7147 68.4238 45.6714C68.4238 44.414 69.6155 43.2637 71.4302 43.2637C73.8678 43.2637 74.7345 44.8956 74.9241 45.9389L78.2826 44.9223Z" fill="#323541"/>
<path d="M85.501 59.3682V40.4013H81.7092V59.3682H85.501Z" fill="#323541"/>
<path d="M107.27 59.3682V49.4969H97.6825V52.7071H103.749C103.533 54.0446 102.151 56.3988 98.6033 56.3988C95.3803 56.3988 92.5364 54.1784 92.5364 49.8981C92.5364 45.4038 95.6782 43.451 98.5762 43.451C101.691 43.451 103.289 45.4038 103.776 47.0892L107.352 45.8319C106.404 42.9159 103.614 40 98.5762 40C93.376 40 88.7446 43.772 88.7446 49.8981C88.7446 56.0243 93.1594 59.7695 98.3325 59.7695C101.231 59.7695 103.126 58.4854 103.993 57.2013L104.237 59.3682H107.27Z" fill="#323541"/>
<path d="M127.428 59.3682V40.4013H123.69V52.9478L115.7 40.4013H111.042V59.3682H114.78V45.9121L123.501 59.3682H127.428Z" fill="#323541"/>
<path d="M152.635 43.9057V40.4013H136.736V43.9057H142.803V59.3682H146.568V43.9057H152.635Z" fill="#323541"/>
<path d="M167.291 59.3682V55.8905H159.003V51.5032H166.506V48.2128H159.003V43.879H167.291V40.4013H155.266V59.3682H167.291Z" fill="#323541"/>
<path d="M184.057 59.3682H188.12L180.807 40.4013H176.474L169.107 59.3682H173.061L174.659 55.0345H182.459L184.057 59.3682ZM178.559 44.4943L181.214 51.6637H175.905L178.559 44.4943Z" fill="#323541"/>
<path d="M212 59.3682V40.4013H206.908L201.275 54.0981L195.506 40.4013H190.576V59.3682H194.151V46.1796L199.677 59.3682H202.791L208.316 46.0726V59.3682H212Z" fill="#323541"/>
<path fill-rule="evenodd" clip-rule="evenodd" d="M101.404 68.75C101.404 68.7492 101.403 68.7484 102.986 67.4055C104.569 66.0626 104.568 66.0619 104.568 66.0612L104.567 66.06L104.565 66.0581L104.563 66.0562C104.563 66.056 104.564 66.0564 104.565 66.0575C104.565 66.0582 104.566 66.0592 104.567 66.0604C104.573 66.0666 104.584 66.0796 104.602 66.0989C104.637 66.1376 104.697 66.2016 104.781 66.2873C104.948 66.4588 105.212 66.7168 105.571 67.0327C106.29 67.6652 107.384 68.5256 108.847 69.3906C111.765 71.1166 116.149 72.8626 121.976 72.8626C127.324 72.8626 131.219 71.1595 133.768 69.4845C135.049 68.6435 135.993 67.8071 136.607 67.1932C136.914 66.8866 137.137 66.6371 137.277 66.4723C137.348 66.39 137.397 66.3291 137.425 66.293C137.44 66.275 137.449 66.2633 137.453 66.2582L137.451 66.2605L137.45 66.2619C137.449 66.2627 137.449 66.2635 139.125 67.4895C140.801 68.7155 140.801 68.7163 140.8 68.7172L140.795 68.7234L140.787 68.7341C140.781 68.7421 140.774 68.7519 140.765 68.7634C140.747 68.7865 140.724 68.8165 140.695 68.853C140.637 68.926 140.557 69.0249 140.454 69.1461C140.247 69.3884 139.949 69.7202 139.558 70.1113C138.776 70.8927 137.615 71.9169 136.063 72.9363C132.948 74.9823 128.269 77 121.976 77C115.274 77 110.163 74.9832 106.719 72.9463C105 71.9298 103.696 70.9087 102.812 70.1301C102.369 69.7405 102.03 69.4105 101.795 69.1705C101.678 69.0504 101.587 68.9527 101.521 68.8812C101.489 68.8454 101.462 68.8161 101.443 68.7938C101.433 68.7827 101.425 68.7733 101.418 68.7657L101.409 68.7557L101.406 68.7517L101.404 68.75ZM137.455 66.2556C137.455 66.2548 137.455 66.2556 137.453 66.2582L137.455 66.2556Z" fill="url(#paint0_linear_1519_185)"/>
<defs>
<linearGradient id="paint0_linear_1519_185" x1="136.204" y1="73.8495" x2="101.15" y2="69.05" gradientUnits="userSpaceOnUse">
<stop stop-color="#7126AB"/>
<stop offset="0.516511" stop-color="#5132A9"/>
<stop offset="1" stop-color="#003AAD"/>
</linearGradient>
</defs>
</svg>
