<svg width="40" height="41" viewBox="0 0 40 41" fill="none" xmlns="http://www.w3.org/2000/svg">
<path d="M39.375 20.8437C39.3753 22.698 38.8256 24.5108 37.7954 26.0527C36.7653 27.5946 35.3011 28.7964 33.5879 29.5061C31.8747 30.2157 29.9895 30.4014 28.1708 30.0396C26.352 29.6777 24.6815 28.7847 23.3704 27.4733L23.2938 27.3905L13.9407 16.8296C13.1499 16.0533 12.1475 15.5279 11.0592 15.3193C9.97097 15.1106 8.84531 15.2281 7.82354 15.6568C6.80177 16.0856 5.92939 16.8066 5.3159 17.7294C4.70241 18.6522 4.37512 19.7356 4.37512 20.8437C4.37512 21.9517 4.70241 23.0352 5.3159 23.9579C5.92939 24.8807 6.80177 25.6017 7.82354 26.0305C8.84531 26.4593 9.97097 26.5767 11.0592 26.368C12.1475 26.1594 13.1499 25.634 13.9407 24.8577L14.4219 24.314C14.5852 24.1293 14.7832 23.9786 15.0046 23.8704C15.2261 23.7623 15.4667 23.6988 15.7127 23.6837C15.9587 23.6685 16.2053 23.7019 16.4384 23.7821C16.6715 23.8622 16.8865 23.9875 17.0711 24.1507C17.2558 24.3139 17.4065 24.5119 17.5147 24.7334C17.6228 24.9549 17.6863 25.1955 17.7015 25.4415C17.7166 25.6875 17.6832 25.9341 17.603 26.1671C17.5229 26.4002 17.3977 26.6152 17.2344 26.7999L16.711 27.3905L16.6344 27.4733C15.3232 28.7843 13.6528 29.677 11.8342 30.0386C10.0157 30.4002 8.1308 30.2145 6.41784 29.5049C4.70487 28.7953 3.24079 27.5936 2.21072 26.052C1.18065 24.5103 0.630859 22.6978 0.630859 20.8437C0.630859 18.9895 1.18065 17.177 2.21072 15.6354C3.24079 14.0937 4.70487 12.8921 6.41784 12.1824C8.1308 11.4728 10.0157 11.2871 11.8342 11.6487C13.6528 12.0103 15.3232 12.903 16.6344 14.214L16.711 14.2968L26.0641 24.8577C26.8549 25.634 27.8573 26.1594 28.9455 26.368C30.0338 26.5767 31.1595 26.4593 32.1812 26.0305C33.203 25.6017 34.0754 24.8807 34.6889 23.9579C35.3024 23.0352 35.6297 21.9517 35.6297 20.8437C35.6297 19.7356 35.3024 18.6522 34.6889 17.7294C34.0754 16.8066 33.203 16.0856 32.1812 15.6568C31.1595 15.2281 30.0338 15.1106 28.9455 15.3193C27.8573 15.5279 26.8549 16.0533 26.0641 16.8296L25.5829 17.3733C25.4196 17.558 25.2216 17.7087 25.0002 17.8169C24.7787 17.925 24.5381 17.9885 24.2921 18.0037C24.0461 18.0188 23.7995 17.9854 23.5664 17.9052C23.3333 17.8251 23.1183 17.6999 22.9336 17.5366C22.749 17.3734 22.5983 17.1754 22.4901 16.9539C22.382 16.7324 22.3185 16.4918 22.3033 16.2458C22.2882 15.9998 22.3216 15.7532 22.4017 15.5202C22.4819 15.2871 22.6071 15.0721 22.7704 14.8874L23.2938 14.2968L23.3704 14.214C24.6815 12.9026 26.352 12.0096 28.1708 11.6477C29.9895 11.2859 31.8747 11.4716 33.5879 12.1812C35.3011 12.8909 36.7653 14.0927 37.7954 15.6346C38.8256 17.1765 39.3753 18.9893 39.375 20.8437Z" fill="#323541"/>
</svg>
