<svg width="40" height="41" viewBox="0 0 40 41" fill="none" xmlns="http://www.w3.org/2000/svg">
<path d="M35.8218 14.9686C37.166 18.579 37.2343 22.5407 36.0155 26.1953C34.7967 29.8499 32.364 32.9774 29.1218 35.0583C25.8796 37.1391 22.023 38.0478 18.1928 37.6336C14.3626 37.2194 10.7895 35.507 8.06714 32.7811C5.00909 29.7331 3.23566 25.6289 3.11181 21.3131C2.98796 16.9973 4.5231 12.7981 7.40132 9.57977C10.2795 6.36144 14.2819 4.36876 18.5847 4.0118C22.8876 3.65484 27.1636 4.96076 30.5328 7.66081L33.6734 4.51862C33.8478 4.34421 34.0549 4.20586 34.2827 4.11147C34.5106 4.01708 34.7549 3.9685 35.0015 3.9685C35.2482 3.9685 35.4924 4.01708 35.7203 4.11147C35.9482 4.20586 36.1552 4.34421 36.3296 4.51862C36.504 4.69304 36.6424 4.90009 36.7368 5.12797C36.8312 5.35585 36.8798 5.60009 36.8798 5.84675C36.8798 6.09341 36.8312 6.33765 36.7368 6.56553C36.6424 6.79341 36.504 7.00046 36.3296 7.17488L21.3296 22.1749C21.1552 22.3493 20.9482 22.4876 20.7203 22.582C20.4924 22.6764 20.2482 22.725 20.0015 22.725C19.7549 22.725 19.5106 22.6764 19.2827 22.582C19.0549 22.4876 18.8478 22.3493 18.6734 22.1749C18.499 22.0005 18.3606 21.7934 18.2662 21.5655C18.1718 21.3376 18.1233 21.0934 18.1233 20.8468C18.1233 20.6001 18.1718 20.3559 18.2662 20.128C18.3606 19.9001 18.499 19.693 18.6734 19.5186L22.4234 15.7686C21.3665 15.2637 20.1783 15.1013 19.0246 15.304C17.871 15.5068 16.8094 16.0647 15.9881 16.8998C15.1667 17.735 14.6266 18.8057 14.443 19.9625C14.2594 21.1194 14.4416 22.3047 14.964 23.3531C15.4865 24.4014 16.3232 25.2606 17.3574 25.8105C18.3916 26.3605 19.5717 26.5739 20.733 26.4209C21.8943 26.268 22.9789 25.7563 23.8354 24.9573C24.692 24.1583 25.2777 23.1118 25.5109 21.9639C25.6091 21.4764 25.897 21.0478 26.3112 20.7725C26.7254 20.4972 27.2319 20.3978 27.7195 20.496C28.207 20.5942 28.6356 20.882 28.9109 21.2962C29.1862 21.7104 29.2857 22.217 29.1875 22.7046C28.7881 24.672 27.7676 26.4593 26.2764 27.8034C24.7851 29.1474 22.9018 29.9773 20.9036 30.1708C18.9053 30.3643 16.8977 29.9113 15.1763 28.8783C13.4548 27.8454 12.1104 26.2872 11.3409 24.4329C10.5714 22.5787 10.4174 20.5264 10.9017 18.5781C11.3859 16.6298 12.4828 14.8884 14.0309 13.6102C15.579 12.332 17.4965 11.5845 19.5012 11.4777C21.506 11.3709 23.492 11.9105 25.1671 13.0171L27.8593 10.3342C25.3304 8.44558 22.2056 7.5315 19.0575 7.75951C15.9094 7.98752 12.9489 9.34236 10.7186 11.5757C8.48824 13.8091 7.13742 16.7714 6.91368 19.9198C6.68994 23.0682 7.60826 26.1918 9.50036 28.7181C11.3925 31.2445 14.1316 33.0044 17.2158 33.6753C20.3 34.3462 23.5227 33.8832 26.2933 32.3711C29.0638 30.8591 31.1967 28.3993 32.3011 25.4424C33.4054 22.4856 33.4072 19.2298 32.3062 16.2717C32.2185 16.0405 32.1775 15.7942 32.1855 15.547C32.1934 15.2998 32.2502 15.0566 32.3525 14.8315C32.4549 14.6063 32.6007 14.4036 32.7817 14.2351C32.9627 14.0665 33.1753 13.9355 33.4071 13.8494C33.639 13.7634 33.8856 13.724 34.1327 13.7337C34.3799 13.7434 34.6226 13.8018 34.8471 13.9057C35.0715 14.0096 35.2732 14.1568 35.4405 14.339C35.6078 14.5212 35.7374 14.7346 35.8218 14.9671V14.9686Z" fill="#323541"/>
</svg>
